<?xml version="1.0" encoding="utf-8"?>
<!-- Generator: Adobe Illustrator 25.0.1, SVG Export Plug-In . SVG Version: 6.00 Build 0)  -->
<svg version="1.1" id="Layer_1" xmlns="http://www.w3.org/2000/svg" xmlns:xlink="http://www.w3.org/1999/xlink" x="0px" y="0px"
	 width="16px" height="16px" viewBox="0 0 16 16" enable-background="new 0 0 16 16" xml:space="preserve">
<g>
	<polygon fill-rule="evenodd" clip-rule="evenodd" fill="#F0AB4E" fill-opacity="0.7" points="1,16 16,16 16,9 1,9 	"/>
	<polygon fill-rule="evenodd" clip-rule="evenodd" fill="#9AA7B0" fill-opacity="0.8" points="7,1 3,5 7,5 	"/>
	<polygon fill-rule="evenodd" clip-rule="evenodd" fill="#9AA7B0" fill-opacity="0.8" points="8,1 8,6 3,6 3,8 13,8 13,1 	"/>
	<polygon fill-rule="evenodd" clip-rule="evenodd" fill="#231F20" fill-opacity="0.7" points="7.5,10 8.4,10 10,12 11.5,10 12.5,10 
		12.5,15 11.5,15 11.5,11.7 10,13.5 8.5,11.7 8.5,15 7.5,15 	"/>
	<polygon fill-rule="evenodd" clip-rule="evenodd" fill="#231F20" fill-opacity="0.7" points="4,11 6,11 6,10 3,10 3,15 4,15 4,13 
		5.8,13 5.8,12 4,12 	"/>
</g>
</svg>
